<?xml version="1.0" encoding="utf-8"?>
<!-- Generator: Adobe Illustrator 27.5.0, SVG Export Plug-In . SVG Version: 6.00 Build 0)  -->
<svg version="1.1" id="Layer_1" xmlns="http://www.w3.org/2000/svg" xmlns:xlink="http://www.w3.org/1999/xlink" x="0px" y="0px"
	 viewBox="0 0 388.604 300.52" style="enable-background:new 0 0 388.604 300.52;" xml:space="preserve">
<g>
	<path style="fill:#8E1E00;" d="M194.302,293.007c-78.711,0-142.747-64.036-142.747-142.747
		c0-78.711,64.036-142.747,142.747-142.747c78.711,0,142.747,64.036,142.747,142.747
		C337.049,228.971,273.013,293.007,194.302,293.007z M194.302,11.335c-76.604,0-138.925,62.321-138.925,138.925
		c0,76.604,62.322,138.926,138.925,138.926c76.604,0,138.926-62.322,138.926-138.926C333.228,73.656,270.906,11.335,194.302,11.335z
		"/>
	<g>
		<g>
			<polygon style="fill:#DD5E00;" points="9.715,113.309 24.205,150.263 9.715,187.212 93.395,187.212 93.395,113.309 			"/>
			<polygon style="fill:#EA6F00;" points="27.13,124.96 37.063,150.263 27.13,175.56 93.395,175.56 93.395,124.96 			"/>
			<polygon style="fill:#EA6F00;" points="25.255,178.167 94.054,178.167 94.054,176.275 27.823,176.275 37.732,151.01 
				27.823,125.739 94.054,125.739 94.054,123.85 25.255,123.85 35.901,151.01 			"/>
			<polygon style="fill:#8E1E00;" points="24.59,177.417 93.395,177.417 93.395,175.531 27.159,175.531 37.068,150.263 
				27.159,124.995 93.395,124.995 93.395,123.103 24.59,123.103 35.242,150.263 			"/>
		</g>
		<linearGradient id="SVGID_1_" gradientUnits="userSpaceOnUse" x1="93.2589" y1="150.276" x2="57.7472" y2="150.276">
			<stop  offset="1.529500e-04" style="stop-color:#893F00"/>
			<stop  offset="0.2221" style="stop-color:#A87243"/>
			<stop  offset="0.5046" style="stop-color:#CDAE93"/>
			<stop  offset="0.7376" style="stop-color:#E8DACD"/>
			<stop  offset="0.9089" style="stop-color:#F9F5F1"/>
			<stop  offset="1" style="stop-color:#FFFFFF"/>
		</linearGradient>
		<rect x="57.341" y="113.34" style="fill:url(#SVGID_1_);" width="36.054" height="73.871"/>
	</g>
	<g>
		<g>
			<polygon style="fill:#DD5E00;" points="378.889,113.309 364.4,150.263 378.889,187.212 295.209,187.212 295.209,113.309 			"/>
			<polygon style="fill:#EA6F00;" points="361.474,124.96 351.542,150.263 361.474,175.56 295.209,175.56 295.209,124.96 			"/>
			<polygon style="fill:#EA6F00;" points="363.35,178.167 294.55,178.167 294.55,176.275 360.781,176.275 350.872,151.01 
				360.781,125.739 294.55,125.739 294.55,123.85 363.35,123.85 352.704,151.01 			"/>
			<polygon style="fill:#8E1E00;" points="364.014,177.417 295.209,177.417 295.209,175.531 361.445,175.531 351.536,150.263 
				361.445,124.995 295.209,124.995 295.209,123.103 364.014,123.103 353.363,150.263 			"/>
		</g>
		
			<linearGradient id="SVGID_00000138551529746763639780000012065730191272265633_" gradientUnits="userSpaceOnUse" x1="-303.4666" y1="150.276" x2="-338.9783" y2="150.276" gradientTransform="matrix(-1 0 0 1 -8.1211 0)">
			<stop  offset="1.529500e-04" style="stop-color:#893F00"/>
			<stop  offset="0.2221" style="stop-color:#A87243"/>
			<stop  offset="0.5046" style="stop-color:#CDAE93"/>
			<stop  offset="0.7376" style="stop-color:#E8DACD"/>
			<stop  offset="0.9089" style="stop-color:#F9F5F1"/>
			<stop  offset="1" style="stop-color:#FFFFFF"/>
		</linearGradient>
		
			<rect x="295.209" y="113.34" style="fill:url(#SVGID_00000138551529746763639780000012065730191272265633_);" width="36.054" height="73.871"/>
	</g>
	
		<ellipse transform="matrix(0.7071 -0.7071 0.7071 0.7071 -49.3401 181.4025)" style="fill:#ED6000;" cx="194.302" cy="150.26" rx="107.404" ry="107.404"/>
	<path style="fill:#8E1E00;" d="M194.302,42.856c59.318,0,107.405,48.086,107.405,107.404c0,59.318-48.087,107.404-107.405,107.404
		c-59.318,0-107.404-48.087-107.404-107.404C86.898,90.942,134.984,42.856,194.302,42.856 M194.302,40.72
		c-60.401,0-109.54,49.139-109.54,109.54s49.14,109.54,109.54,109.54c60.401,0,109.54-49.139,109.54-109.54
		S254.703,40.72,194.302,40.72L194.302,40.72z"/>
	<polygon style="fill:#FC9500;" points="229.822,151.811 299.319,150.26 229.822,148.709 298.92,141.107 229.552,145.619 
		297.724,132.024 229.013,142.565 295.741,123.079 228.211,139.569 292.986,114.342 227.15,136.654 289.48,105.878 225.839,133.843 
		285.25,97.751 224.288,131.157 280.327,90.024 222.51,128.616 274.75,82.756 220.515,126.24 268.561,76.002 218.322,124.047 
		261.806,69.812 215.946,122.053 254.538,64.235 213.405,120.274 246.811,59.312 210.719,118.723 238.684,55.082 207.908,117.412 
		230.22,51.576 204.993,116.352 221.483,48.821 201.997,115.549 212.538,46.838 198.943,115.01 203.455,45.642 195.853,114.74 
		194.302,45.243 192.751,114.74 185.149,45.642 189.661,115.01 176.066,46.838 186.607,115.549 167.122,48.821 183.611,116.352 
		158.384,51.576 180.696,117.413 149.92,55.082 177.885,118.723 141.794,59.312 175.199,120.274 134.067,64.235 172.658,122.053 
		126.798,69.812 170.282,124.047 120.044,76.002 168.089,126.24 113.854,82.756 166.095,128.616 108.277,90.024 164.316,131.157 
		103.354,97.751 162.765,133.843 99.124,105.878 161.455,136.654 95.618,114.342 160.394,139.569 92.863,123.079 159.591,142.565 
		90.88,132.024 159.052,145.619 89.684,141.107 158.782,148.709 89.285,150.26 158.782,151.811 89.684,159.413 159.052,154.901 
		90.88,168.496 159.591,157.955 92.863,177.441 160.394,160.951 95.618,186.178 161.455,163.866 99.124,194.642 162.766,166.677 
		103.354,202.769 164.316,169.363 108.277,210.495 166.095,171.904 113.854,217.764 168.089,174.28 120.044,224.519 
		170.282,176.473 126.798,230.708 172.658,178.467 134.067,236.285 175.199,180.246 141.794,241.208 177.885,181.797 
		149.92,245.438 180.696,183.107 158.384,248.944 183.611,184.169 167.122,251.699 186.607,184.971 176.066,253.682 189.661,185.51 
		185.149,254.878 192.751,185.78 194.302,255.277 195.853,185.78 203.455,254.878 198.943,185.51 212.538,253.682 201.997,184.971 
		221.483,251.699 204.993,184.168 230.22,248.944 207.908,183.108 238.684,245.438 210.719,181.797 246.811,241.208 
		213.405,180.246 254.538,236.285 215.946,178.466 261.806,230.708 218.322,176.473 268.561,224.519 220.515,174.28 274.75,217.764 
		222.509,171.904 280.327,210.495 224.288,169.363 285.25,202.769 225.839,166.677 289.48,194.642 227.15,163.866 292.986,186.178 
		228.211,160.951 295.741,177.441 229.014,157.955 297.724,168.496 229.552,154.901 298.92,159.413 	"/>
	<g>
		<path style="fill:#7C1400;" d="M92.786,209.61c1.087,1.9,2.246,1.801,3.514,1.58l0.946,1.654L81.6,221.793l-1.406-2.459
			l11.936-6.827l-1.087-1.9L92.786,209.61z"/>
		<path style="fill:#7C1400;" d="M98.624,222.883c2.281-1.763,4.513-1.569,6.214,0.631c1.701,2.2,1.326,4.409-0.956,6.172
			l-7.414,5.73c-2.281,1.764-4.513,1.569-6.213-0.631c-1.7-2.199-1.325-4.409,0.955-6.171L98.624,222.883z M92.8,230.963
			c-1.018,0.788-1.059,1.534-0.508,2.248c0.551,0.712,1.285,0.862,2.303,0.074l7.699-5.951c1.018-0.788,1.059-1.535,0.508-2.247
			c-0.551-0.713-1.285-0.862-2.303-0.075L92.8,230.963z"/>
		<path style="fill:#7C1400;" d="M109.084,235.528c2.018-2.061,4.256-2.175,6.243-0.229c1.987,1.946,1.919,4.187-0.099,6.246
			l-6.559,6.696c-2.018,2.061-4.256,2.175-6.243,0.228c-1.987-1.945-1.919-4.186,0.099-6.246L109.084,235.528z M104.423,244.335
			c-0.901,0.92-0.838,1.666-0.194,2.296c0.644,0.631,1.391,0.678,2.291-0.242l6.811-6.953c0.901-0.919,0.839-1.665,0.195-2.296
			c-0.644-0.631-1.391-0.677-2.292,0.242L104.423,244.335z"/>
		<path style="fill:#7C1400;" d="M131.632,248.852l1.369,0.963l-16.184,10.655l-1.369-0.963L131.632,248.852z M122.001,245.446
			c1.066-1.517,2.439-1.811,3.892-0.789c1.453,1.022,1.64,2.413,0.573,3.929l-3.408,4.845c-1.067,1.517-2.439,1.811-3.892,0.789
			s-1.64-2.413-0.573-3.929L122.001,245.446z M119.994,251.433c-0.459,0.653-0.378,1.12,0.106,1.46
			c0.463,0.326,0.951,0.26,1.41-0.393l3.555-5.055c0.459-0.653,0.357-1.134-0.106-1.46c-0.485-0.34-0.951-0.26-1.41,0.393
			L119.994,251.433z M125.517,255.979c1.066-1.516,2.438-1.811,3.892-0.789c1.453,1.022,1.64,2.413,0.573,3.93l-3.408,4.844
			c-1.066,1.517-2.439,1.811-3.892,0.789c-1.453-1.022-1.64-2.413-0.573-3.929L125.517,255.979z M123.51,261.965
			c-0.459,0.653-0.378,1.12,0.106,1.46c0.463,0.326,0.951,0.26,1.41-0.393l3.555-5.055c0.459-0.653,0.357-1.134-0.106-1.46
			c-0.485-0.341-0.951-0.259-1.41,0.393L123.51,261.965z"/>
		<path style="fill:#7C1400;" d="M152.231,264.612l-0.927,2.151c-1.142,2.648-3.04,3.54-5.641,2.419l-1.229-0.53l-2.68,6.219
			l-2.6-1.122l7.133-16.55l3.83,1.651C152.717,259.971,153.373,261.964,152.231,264.612z M147.868,260.685l-2.415,5.603l1.229,0.53
			c0.827,0.356,1.44,0.172,1.95-1.01l1.07-2.483c0.51-1.182,0.224-1.753-0.604-2.111L147.868,260.685z"/>
		<path style="fill:#7C1400;" d="M161.596,281.784c-0.026-0.488-0.05-0.789,0.339-2.203l0.751-2.732
			c0.444-1.613,0.061-2.36-1.18-2.702l-0.943-0.259l-1.946,7.077l-2.732-0.751l4.779-17.382l4.122,1.134
			c2.83,0.778,3.685,2.429,2.948,5.111l-0.375,1.366c-0.492,1.788-1.384,2.798-2.757,3.035c1.208,0.946,1.294,2.385,0.795,4.198
			l-0.737,2.682c-0.232,0.844-0.378,1.471-0.283,2.192L161.596,281.784z M162.713,266.067l-1.468,5.338l1.068,0.294
			c1.018,0.279,1.762,0.004,2.144-1.387l0.471-1.714c0.341-1.241,0.07-1.904-0.899-2.17L162.713,266.067z"/>
		<path style="fill:#7C1400;" d="M178.009,274.426l3.855,0.507l-0.336,2.553l-3.855-0.508l-0.689,5.233l4.85,0.639l-0.336,2.552
			l-7.658-1.008l2.354-17.869l7.658,1.009l-0.336,2.552l-4.85-0.639L178.009,274.426z"/>
		<path style="fill:#7C1400;" d="M197.396,280.769l1.693-12.831l3.939-0.073l0.335,18.021l-2.678,0.049l-0.24-12.923l-1.716,12.96
			l-2.677,0.05l-2.348-12.704l0.237,12.743l-2.471,0.046l-0.335-18.021l3.939-0.073L197.396,280.769z"/>
		<path style="fill:#7C1400;" d="M210.672,266.928l2.802-0.421l2.679,17.828l-2.802,0.421L210.672,266.928z"/>
		<path style="fill:#7C1400;" d="M223.756,264.346l3.663,13.409c0.339,1.241,1.008,1.539,1.877,1.302
			c0.869-0.237,1.293-0.833,0.954-2.074l-3.664-13.41l2.582-0.705l3.616,13.235c0.76,2.78-0.196,4.75-2.878,5.483
			c-2.682,0.732-4.507-0.477-5.266-3.258l-3.616-13.235L223.756,264.346z"/>
		<path style="fill:#7C1400;" d="M246.93,269.688l-3.484-12.462l3.593-1.615l7.387,16.439l-2.442,1.098l-5.297-11.789l3.513,12.591
			l-2.442,1.098l-7.15-10.759l5.224,11.624l-2.254,1.013l-7.387-16.438l3.593-1.615L246.93,269.688z"/>
		<path style="fill:#7C1400;" d="M271.133,244.404l0.397,0.507c1.144,1.459,1.429,2.74,0.802,3.986
			c1.561-0.471,2.869,0.238,4.044,1.737l0.906,1.155c1.716,2.189,1.482,4.27-0.747,6.017l-3.506,2.749l-11.121-14.186l3.364-2.637
			C267.582,241.92,269.417,242.215,271.133,244.404z M265.725,246.647l2.939,3.749l0.872-0.683c0.831-0.651,1.052-1.414,0.162-2.549
			l-0.62-0.79c-0.794-1.013-1.489-1.189-2.279-0.57L265.725,246.647z M270.253,252.423l3.416,4.357l1.277-1.001
			c0.75-0.588,0.885-1.25,0.059-2.304l-0.969-1.237c-1.033-1.317-1.776-1.389-2.789-0.595L270.253,252.423z"/>
		<path style="fill:#7C1400;" d="M281.645,239.268l2.708-2.791l1.848,1.792l-2.708,2.792l3.789,3.676l3.407-3.511l1.848,1.793
			l-5.379,5.544l-12.937-12.552l5.379-5.544l1.848,1.793l-3.407,3.512L281.645,239.268z"/>
		<path style="fill:#7C1400;" d="M292.161,227.072l2.318-3.121l2.068,1.535l-2.318,3.121l4.237,3.147l2.917-3.927l2.067,1.535
			l-4.605,6.202l-14.47-10.746l4.605-6.201l2.067,1.534l-2.916,3.928L292.161,227.072z"/>
		<path style="fill:#7C1400;" d="M301.34,213.781l1.781-3.195l2.25,1.254l-1.781,3.194l6.502,3.625l-1.38,2.474l-15.748-8.777
			l3.649-6.547l2.25,1.254l-2.269,4.072L301.34,213.781z"/>
	</g>
	<g>
		<path style="fill:#EA6F00;" d="M92.786,208.348c1.087,1.9,2.246,1.801,3.514,1.58l0.946,1.654L81.6,220.531l-1.406-2.459
			l11.936-6.827l-1.087-1.9L92.786,208.348z"/>
		<path style="fill:#EA6F00;" d="M98.624,221.62c2.281-1.763,4.513-1.569,6.214,0.631c1.701,2.2,1.326,4.409-0.956,6.172
			l-7.414,5.73c-2.281,1.764-4.513,1.569-6.213-0.631c-1.7-2.199-1.325-4.409,0.955-6.171L98.624,221.62z M92.8,229.701
			c-1.018,0.788-1.059,1.535-0.508,2.248c0.551,0.712,1.285,0.862,2.303,0.074l7.699-5.951c1.018-0.788,1.059-1.534,0.508-2.247
			c-0.551-0.714-1.285-0.862-2.303-0.075L92.8,229.701z"/>
		<path style="fill:#EA6F00;" d="M109.084,234.266c2.018-2.061,4.256-2.175,6.243-0.229c1.987,1.946,1.919,4.187-0.099,6.247
			l-6.559,6.696c-2.018,2.061-4.256,2.175-6.243,0.228c-1.987-1.946-1.919-4.186,0.099-6.246L109.084,234.266z M104.423,243.072
			c-0.901,0.92-0.838,1.666-0.194,2.296c0.644,0.631,1.391,0.678,2.291-0.242l6.811-6.953c0.901-0.919,0.839-1.665,0.195-2.296
			c-0.644-0.631-1.391-0.677-2.292,0.242L104.423,243.072z"/>
		<path style="fill:#EA6F00;" d="M131.632,247.589l1.369,0.963l-16.184,10.655l-1.369-0.963L131.632,247.589z M122.001,244.184
			c1.066-1.517,2.439-1.811,3.892-0.789s1.64,2.413,0.573,3.929l-3.408,4.845c-1.067,1.517-2.439,1.811-3.892,0.789
			c-1.453-1.022-1.64-2.413-0.573-3.929L122.001,244.184z M119.994,250.17c-0.459,0.653-0.378,1.12,0.106,1.46
			c0.463,0.326,0.951,0.26,1.41-0.393l3.555-5.055c0.459-0.653,0.357-1.134-0.106-1.46c-0.485-0.34-0.951-0.26-1.41,0.393
			L119.994,250.17z M125.517,254.716c1.066-1.516,2.438-1.811,3.892-0.788c1.453,1.022,1.64,2.413,0.573,3.93l-3.408,4.844
			c-1.066,1.517-2.439,1.811-3.892,0.789c-1.453-1.022-1.64-2.413-0.573-3.929L125.517,254.716z M123.51,260.703
			c-0.459,0.653-0.378,1.12,0.106,1.46c0.463,0.326,0.951,0.26,1.41-0.393l3.555-5.055c0.459-0.653,0.357-1.134-0.106-1.46
			c-0.485-0.34-0.951-0.259-1.41,0.393L123.51,260.703z"/>
		<path style="fill:#EA6F00;" d="M152.231,263.35l-0.927,2.152c-1.142,2.648-3.04,3.54-5.641,2.419l-1.229-0.53l-2.68,6.219
			l-2.6-1.122l7.133-16.55l3.83,1.651C152.717,258.709,153.373,260.702,152.231,263.35z M147.868,259.423l-2.415,5.604l1.229,0.53
			c0.827,0.356,1.44,0.172,1.95-1.01l1.07-2.483c0.51-1.182,0.224-1.753-0.604-2.111L147.868,259.423z"/>
		<path style="fill:#EA6F00;" d="M161.596,280.522c-0.026-0.488-0.05-0.789,0.339-2.203l0.751-2.732
			c0.444-1.613,0.061-2.36-1.18-2.702l-0.943-0.259l-1.946,7.077l-2.732-0.751l4.779-17.382l4.122,1.134
			c2.83,0.778,3.685,2.429,2.948,5.111l-0.375,1.366c-0.492,1.788-1.384,2.798-2.757,3.035c1.208,0.946,1.294,2.385,0.795,4.198
			l-0.737,2.682c-0.232,0.844-0.378,1.471-0.283,2.192L161.596,280.522z M162.713,264.805l-1.468,5.338l1.068,0.294
			c1.018,0.279,1.762,0.004,2.144-1.387l0.471-1.714c0.341-1.241,0.07-1.904-0.899-2.17L162.713,264.805z"/>
		<path style="fill:#EA6F00;" d="M178.009,273.163l3.855,0.508l-0.336,2.553l-3.855-0.508l-0.689,5.233l4.85,0.639l-0.336,2.552
			l-7.658-1.009l2.354-17.869l7.658,1.009l-0.336,2.552l-4.85-0.639L178.009,273.163z"/>
		<path style="fill:#EA6F00;" d="M197.396,279.507l1.693-12.831l3.939-0.073l0.335,18.021l-2.678,0.049l-0.24-12.923l-1.716,12.96
			l-2.677,0.05l-2.348-12.704l0.237,12.743l-2.471,0.046l-0.335-18.021l3.939-0.073L197.396,279.507z"/>
		<path style="fill:#EA6F00;" d="M210.672,265.665l2.802-0.421l2.679,17.828l-2.802,0.421L210.672,265.665z"/>
		<path style="fill:#EA6F00;" d="M223.756,263.084l3.663,13.409c0.339,1.241,1.008,1.539,1.877,1.302
			c0.869-0.237,1.293-0.833,0.954-2.074l-3.664-13.409l2.582-0.705l3.616,13.235c0.76,2.78-0.196,4.75-2.878,5.483
			c-2.682,0.732-4.507-0.477-5.266-3.258l-3.616-13.235L223.756,263.084z"/>
		<path style="fill:#EA6F00;" d="M246.93,268.426l-3.484-12.462l3.593-1.615l7.387,16.439l-2.442,1.098l-5.297-11.789l3.513,12.591
			l-2.442,1.097l-7.15-10.759l5.224,11.624l-2.254,1.013l-7.387-16.438l3.593-1.615L246.93,268.426z"/>
		<path style="fill:#EA6F00;" d="M271.133,243.142l0.397,0.507c1.144,1.459,1.429,2.741,0.802,3.986
			c1.561-0.471,2.869,0.238,4.044,1.737l0.906,1.155c1.716,2.189,1.482,4.27-0.747,6.017l-3.506,2.749l-11.121-14.186l3.364-2.637
			C267.582,240.658,269.417,240.953,271.133,243.142z M265.725,245.385l2.939,3.749l0.872-0.683
			c0.831-0.651,1.052-1.414,0.162-2.549l-0.62-0.79c-0.794-1.013-1.489-1.189-2.279-0.57L265.725,245.385z M270.253,251.16
			l3.416,4.358l1.277-1.001c0.75-0.588,0.885-1.25,0.059-2.304l-0.969-1.237c-1.033-1.317-1.776-1.389-2.789-0.595L270.253,251.16z"
			/>
		<path style="fill:#EA6F00;" d="M281.645,238.006l2.708-2.791l1.848,1.792l-2.708,2.792l3.789,3.676l3.407-3.512l1.848,1.793
			l-5.379,5.544l-12.937-12.552l5.379-5.544l1.848,1.793l-3.407,3.512L281.645,238.006z"/>
		<path style="fill:#EA6F00;" d="M292.161,225.81l2.318-3.121l2.068,1.535l-2.318,3.121l4.237,3.147l2.917-3.927l2.067,1.534
			l-4.605,6.202l-14.47-10.746l4.605-6.201l2.067,1.535l-2.916,3.928L292.161,225.81z"/>
		<path style="fill:#EA6F00;" d="M301.34,212.519l1.781-3.195l2.25,1.254l-1.781,3.194l6.502,3.625l-1.38,2.474l-15.748-8.777
			l3.649-6.547l2.25,1.254l-2.269,4.072L301.34,212.519z"/>
	</g>
	<g>
		<path style="fill:#7C1400;" d="M126.076,45.323l0.871,2.318l-3.934,2.829l4.566,10.443l-3.776,2.716l-8.822-20.233
			c-1.944,1.558-2.504,3.711,0.495,7.88c0.962,1.338,1.453,1.302,1.649,1.52c-1.81,1.301-3.278,1.362-4.635-0.526
			c-2.508-3.487-2.438-8.591,4.039-13.249c1.049-0.754,2.927-1.628,4.579-2.816c0.813-0.585,1.569-1.248,2.134-2.012
			c0.425,1.366,1.496,3.022-0.228,4.938c-1.206,0.867-2.608,1.518-4.03,2.142l3.053,6.955L126.076,45.323z"/>
		<path style="fill:#7C1400;" d="M134.504,37.692l0.438,1.595c0.608-1.342,1.42-2.573,2.621-3.204
			c1.287-0.677,2.45-0.34,3.021,0.746c0.527,1,0.43,2.621-0.97,3.358c-1.601,0.842-1.794-1.466-2.652-1.014
			c-0.857,0.451-1.149,1.007-1.491,1.953l3.526,12.455l-4.116,2.166l-4.493-15.887L134.504,37.692z"/>
		<path style="fill:#7C1400;" d="M153.631,44.283c1.479-0.564,3.346-3.281,3.551-5.917l1.358-0.519
			c-0.535,3.765-2.27,7.918-6.163,9.403c-2.897,1.105-5.307-0.499-6.296-3.095c-1.462-3.833-2.399-11.185,3.094-13.28
			c2.475-0.943,4.255-0.447,5.06,1.665c1.404,3.682-1.744,7.302-4.473,8.758c0.124,0.507,0.266,0.97,0.404,1.333
			C150.926,44.623,152.454,44.732,153.631,44.283z M150.78,32.095c-1.69,0.645-1.778,4.584-1.329,7.663
			c2.765-1.089,3.818-4.222,3.03-6.376C152.239,32.748,151.686,31.75,150.78,32.095z"/>
		<path style="fill:#7C1400;" d="M171.728,24.903l0.193,11.226c0.017,0.361,0.033,0.722,0.098,1.005
			c0.159,0.693,0.59,1.124,1.849,0.835c1.259-0.29,2.492-2.429,3.519-3.726l1.071-0.246c-1.116,1.781-3.711,6.786-6.167,7.35
			c-2.047,0.47-3.606,0.033-4.391-1.51c-0.648,1.508-1.768,3.125-3.689,3.565c-3.023,0.695-4.396-1.244-4.823-3.101
			c-1.244-5.415-0.782-12.35,5.515-13.796c0.756-0.174,1.615-0.04,2.29,0.302l0.001-0.862L171.728,24.903z M163.444,38.473
			c0.434,1.889,1.553,1.996,2.34,1.816c0.725-0.166,1.258-1.018,1.654-2.037c-0.041-0.322-0.058-0.683-0.05-1.082l-0.153-8.748
			c-0.605-0.326-1.232-0.314-1.673-0.212C163.199,28.752,162.46,34.192,163.444,38.473z"/>
		<path style="fill:#7C1400;" d="M189.35,39.32c-2.287,0.167-3.396-1.273-3.545-3.303c-0.038-0.515-0.014-1.068,0.075-1.625
			l0.799-5.887c0.016-0.228,0.029-0.488,0.01-0.746c-0.076-1.031-0.597-1.964-1.596-1.891c-0.773,0.057-1.368,0.327-1.977,0.858
			l-1.818,13.183l-4.638,0.34l3.063-22.245l4.72-0.994l-1.139,8.309c1.25-1.063,2.675-1.945,4.092-2.049
			c1.804-0.132,3.848,1.693,4.004,3.819c0.017,0.226,0.035,0.483-0.013,0.714l-0.869,6.248c-0.066,0.426-0.191,0.921-0.161,1.34
			c0.04,0.547,0.329,0.947,1.295,0.877c0.225-0.017,0.58-0.043,0.83-0.158C191.784,38.947,190.445,39.24,189.35,39.32z"/>
		<path style="fill:#7C1400;" d="M219.933,42.091l6.105-14.375l-8.958,13.817l-4.343-0.85l2.649-13.538l-6.834,12.718l-2.536-0.496
			l11.364-20.39c-3.369,0.394-5.793,2.52-6.506,6.166c-0.317,1.617,0.046,1.951,0.022,2.242c-2.188-0.428-3.237-1.456-2.791-3.739
			c0.757-3.868,6.946-7.068,11.892-6.099c0.729,0.142,1.471,0.386,2.125,0.745l-3.574,18.261l10.516-16.902l4.977,0.974
			l-9.544,22.359L219.933,42.091z"/>
		<path style="fill:#7C1400;" d="M236.714,44.906c1.477,0.569,4.682-0.204,6.596-2.028l1.356,0.523
			c-2.914,2.442-6.979,4.371-10.867,2.873c-2.893-1.114-3.613-3.919-2.614-6.51c1.474-3.828,5.691-9.921,11.176-7.808
			c2.472,0.952,3.463,2.51,2.65,4.62c-1.417,3.677-6.177,4.266-9.18,3.525c-0.246,0.458-0.45,0.899-0.59,1.261
			C234.475,43.351,235.539,44.454,236.714,44.906z M242.74,33.938c-1.688-0.65-4.386,2.221-6.11,4.809
			c2.784,1.038,5.66-0.587,6.515-2.715C243.388,35.399,243.644,34.286,242.74,33.938z"/>
		<path style="fill:#7C1400;" d="M263.152,42.598l-7.357,8.479c-0.229,0.279-0.458,0.559-0.598,0.813
			c-0.345,0.622-0.313,1.23,0.817,1.856c1.13,0.626,3.476-0.141,5.107-0.419l0.961,0.533c-2.02,0.579-7.294,2.568-9.498,1.347
			c-1.836-1.018-2.704-2.385-2.257-4.058c-1.489,0.689-3.402,1.143-5.126,0.187c-2.712-1.503-2.439-3.862-1.515-5.529
			c2.693-4.859,7.67-9.709,13.32-6.578c0.678,0.376,1.228,1.05,1.502,1.755l0.577-0.64L263.152,42.598z M247.922,47.157
			c-0.939,1.696-0.179,2.522,0.527,2.914c0.65,0.36,1.616,0.083,2.591-0.41c0.185-0.267,0.413-0.547,0.686-0.839l5.731-6.61
			c-0.233-0.647-0.707-1.057-1.103-1.276C254.236,39.762,250.051,43.315,247.922,47.157z"/>
		<path style="fill:#7C1400;" d="M264.609,57.045c-0.307,0.256-0.588,0.531-0.797,0.818c-0.4,0.547-0.478,1.091,0.226,1.606
			c0.183,0.133,0.469,0.342,0.735,0.417c-2.369,1.71-3.631,1.027-4.518,0.379c-1.825-1.335-1.731-3.106-0.549-4.723
			c0.305-0.417,0.7-0.849,1.148-1.241l7.388-6.604l-0.86-0.629l0.971-0.891l0.861,0.629l3.413-3.027l4.241,2.3
			c0,0-1.687,1.487-3.898,3.472l1.565,1.143l-0.971,0.891l-1.565-1.143L264.609,57.045z"/>
	</g>
	<g>
		<path style="fill:#EA6F00;" d="M126.076,43.606l0.871,2.317l-3.934,2.829l4.566,10.443l-3.776,2.715l-8.822-20.233
			c-1.944,1.558-2.504,3.711,0.495,7.88c0.962,1.338,1.453,1.302,1.649,1.52c-1.81,1.301-3.278,1.362-4.635-0.526
			c-2.508-3.487-2.438-8.591,4.039-13.249c1.049-0.754,2.927-1.628,4.579-2.816c0.813-0.585,1.569-1.248,2.134-2.012
			c0.425,1.366,1.496,3.022-0.228,4.938c-1.206,0.867-2.608,1.518-4.03,2.142l3.053,6.955L126.076,43.606z"/>
		<path style="fill:#EA6F00;" d="M134.504,35.975l0.438,1.595c0.608-1.342,1.42-2.573,2.621-3.204
			c1.287-0.677,2.45-0.34,3.021,0.746c0.527,1,0.43,2.621-0.97,3.358c-1.601,0.842-1.794-1.466-2.652-1.014
			c-0.857,0.451-1.149,1.007-1.491,1.953l3.526,12.455l-4.116,2.166l-4.493-15.888L134.504,35.975z"/>
		<path style="fill:#EA6F00;" d="M153.631,42.566c1.479-0.564,3.346-3.281,3.551-5.917l1.358-0.519
			c-0.535,3.765-2.27,7.918-6.163,9.403c-2.897,1.105-5.307-0.499-6.296-3.095c-1.462-3.833-2.399-11.185,3.094-13.28
			c2.475-0.944,4.255-0.447,5.06,1.665c1.404,3.682-1.744,7.302-4.473,8.758c0.124,0.507,0.266,0.97,0.404,1.333
			C150.926,42.906,152.454,43.015,153.631,42.566z M150.78,30.378c-1.69,0.645-1.778,4.584-1.329,7.663
			c2.765-1.089,3.818-4.222,3.03-6.376C152.239,31.031,151.686,30.033,150.78,30.378z"/>
		<path style="fill:#EA6F00;" d="M171.728,23.185l0.193,11.226c0.017,0.361,0.033,0.722,0.098,1.005
			c0.159,0.693,0.59,1.124,1.849,0.835c1.259-0.29,2.492-2.429,3.519-3.726l1.071-0.246c-1.116,1.781-3.711,6.786-6.167,7.351
			c-2.047,0.47-3.606,0.032-4.391-1.51c-0.648,1.508-1.768,3.125-3.689,3.565c-3.023,0.695-4.396-1.244-4.823-3.101
			c-1.244-5.415-0.782-12.35,5.515-13.796c0.756-0.174,1.615-0.04,2.29,0.302l0.001-0.862L171.728,23.185z M163.444,36.756
			c0.434,1.889,1.553,1.996,2.34,1.816c0.725-0.166,1.258-1.018,1.654-2.037c-0.041-0.322-0.058-0.683-0.05-1.082l-0.153-8.749
			c-0.605-0.326-1.232-0.314-1.673-0.212C163.199,27.035,162.46,32.475,163.444,36.756z"/>
		<path style="fill:#EA6F00;" d="M189.35,37.603c-2.287,0.167-3.396-1.273-3.545-3.303c-0.038-0.515-0.014-1.068,0.075-1.624
			l0.799-5.887c0.016-0.228,0.029-0.488,0.01-0.746c-0.076-1.031-0.597-1.964-1.596-1.891c-0.773,0.057-1.368,0.328-1.977,0.858
			l-1.818,13.183l-4.638,0.34l3.063-22.245l4.72-0.994l-1.139,8.309c1.25-1.063,2.675-1.945,4.092-2.049
			c1.804-0.132,3.848,1.693,4.004,3.819c0.017,0.226,0.035,0.483-0.013,0.713l-0.869,6.248c-0.066,0.426-0.191,0.921-0.161,1.34
			c0.04,0.547,0.329,0.947,1.295,0.877c0.225-0.017,0.58-0.043,0.83-0.158C191.784,37.23,190.445,37.523,189.35,37.603z"/>
		<path style="fill:#EA6F00;" d="M219.933,40.374l6.105-14.375l-8.958,13.817l-4.343-0.85l2.649-13.537l-6.834,12.718l-2.536-0.496
			l11.364-20.39c-3.369,0.394-5.793,2.52-6.506,6.166c-0.317,1.617,0.046,1.951,0.022,2.242c-2.188-0.428-3.237-1.456-2.791-3.739
			c0.757-3.868,6.946-7.067,11.892-6.099c0.729,0.142,1.471,0.386,2.125,0.745l-3.574,18.261l10.516-16.902l4.977,0.974
			l-9.544,22.359L219.933,40.374z"/>
		<path style="fill:#EA6F00;" d="M236.714,43.189c1.477,0.569,4.682-0.204,6.596-2.028l1.356,0.523
			c-2.914,2.442-6.979,4.372-10.867,2.873c-2.893-1.114-3.613-3.919-2.614-6.51c1.474-3.828,5.691-9.921,11.176-7.808
			c2.472,0.952,3.463,2.51,2.65,4.62c-1.417,3.677-6.177,4.266-9.18,3.524c-0.246,0.458-0.45,0.899-0.59,1.261
			C234.475,41.634,235.539,42.736,236.714,43.189z M242.74,32.221c-1.688-0.65-4.386,2.221-6.11,4.809
			c2.784,1.038,5.66-0.587,6.515-2.715C243.388,33.682,243.644,32.569,242.74,32.221z"/>
		<path style="fill:#EA6F00;" d="M263.152,40.881l-7.357,8.479c-0.229,0.279-0.458,0.558-0.598,0.813
			c-0.345,0.622-0.313,1.23,0.817,1.856c1.13,0.626,3.476-0.141,5.107-0.419l0.961,0.533c-2.02,0.579-7.294,2.568-9.498,1.347
			c-1.836-1.018-2.704-2.385-2.257-4.058c-1.489,0.689-3.402,1.143-5.126,0.187c-2.712-1.503-2.439-3.862-1.515-5.529
			c2.693-4.86,7.67-9.709,13.32-6.578c0.678,0.376,1.228,1.05,1.502,1.755l0.577-0.64L263.152,40.881z M247.922,45.44
			c-0.939,1.696-0.179,2.522,0.527,2.914c0.65,0.36,1.616,0.083,2.591-0.41c0.185-0.267,0.413-0.546,0.686-0.839l5.731-6.61
			c-0.233-0.647-0.707-1.057-1.103-1.276C254.236,38.045,250.051,41.598,247.922,45.44z"/>
		<path style="fill:#EA6F00;" d="M264.609,55.328c-0.307,0.256-0.588,0.531-0.797,0.818c-0.4,0.547-0.478,1.091,0.226,1.606
			c0.183,0.133,0.469,0.342,0.735,0.417c-2.369,1.71-3.631,1.027-4.518,0.379c-1.825-1.335-1.731-3.106-0.549-4.723
			c0.305-0.417,0.7-0.849,1.148-1.241l7.388-6.604l-0.86-0.629l0.971-0.891l0.861,0.629l3.413-3.027l4.241,2.3
			c0,0-1.687,1.487-3.898,3.472l1.565,1.143l-0.971,0.891l-1.565-1.143L264.609,55.328z"/>
	</g>
	<g>
		<g>
			<polygon style="fill:#FC9500;" points="287.328,57.261 286,61.672 289.784,64.298 285.179,64.398 283.852,68.809 282.333,64.46 
				277.728,64.56 281.395,61.772 279.876,57.424 283.661,60.049 			"/>
		</g>
		<g>
			<polygon style="fill:#FC9500;" points="304.425,77.975 302.342,80.902 304.483,83.788 301.055,82.712 298.973,85.64 
				298.936,82.047 295.509,80.971 298.914,79.826 298.878,76.234 301.019,79.119 			"/>
		</g>
		<g>
			<polygon style="fill:#FC9500;" points="313.967,101.567 311.267,103.2 311.986,106.273 309.598,104.209 306.898,105.842 
				308.122,102.934 305.735,100.871 308.879,101.137 310.104,98.229 310.823,101.301 			"/>
		</g>
	</g>
	<g>
		<g>
			<polygon style="fill:#FC9500;" points="101.575,57.261 102.902,61.672 99.118,64.298 103.723,64.398 105.05,68.809 
				106.569,64.46 111.174,64.56 107.507,61.772 109.026,57.424 105.241,60.049 			"/>
		</g>
		<g>
			<polygon style="fill:#FC9500;" points="84.478,77.975 86.56,80.902 84.419,83.788 87.847,82.712 89.93,85.64 89.966,82.047 
				93.394,80.971 89.988,79.826 90.024,76.234 87.883,79.119 			"/>
		</g>
		<g>
			<polygon style="fill:#FC9500;" points="74.935,101.567 77.635,103.2 76.917,106.273 79.304,104.209 82.005,105.842 
				80.78,102.934 83.167,100.871 80.023,101.137 78.798,98.229 78.079,101.301 			"/>
		</g>
	</g>
</g>
</svg>
